<?xml version="1.0" encoding="utf-8"?>
<!-- Generator: Adobe Illustrator 15.1.0, SVG Export Plug-In . SVG Version: 6.00 Build 0)  -->
<!DOCTYPE svg PUBLIC "-//W3C//DTD SVG 1.1//EN" "http://www.w3.org/Graphics/SVG/1.1/DTD/svg11.dtd">
<svg version="1.1" id="Layer_1" xmlns="http://www.w3.org/2000/svg" xmlns:xlink="http://www.w3.org/1999/xlink" x="0px" y="0px"
	 width="28.991px" height="20px" viewBox="2.009 3.5 28.991 20" enable-background="new 2.009 3.5 28.991 20" xml:space="preserve">
<path fill="#FFFFFF" d="M21,3.5c-0.996,0-2,0.976-2,2c0-0.993-1.033-2-2-2c-0.715,0-10,0-10,0v6.068
	C7.326,9.527,7.656,9.5,7.993,9.5C8.335,9.5,8.669,9.529,9,9.57V5.5c0,0,6.199,0,7,0c0.987,0,2,0.984,2,2c0,0.86,0,12,0,12h-2.275
	c-0.184,0.71-0.458,1.381-0.816,2c0.565,0,0.964,0,1.091,0c0.986,0,2,0.973,2,2h1h1c0-1.027,1.015-2,2-2c0.674,0,9,0,9,0v-18
	C31,3.499,21.716,3.5,21,3.5z M29,19.5h-9c0,0,0-11.14,0-12c0-1.016,0.949-2,2-2c0.801,0,7,0,7,0V19.5z"/>
<path fill="#FFFFFF" d="M8.01,11.499c-3.314,0-6.001,2.687-6.001,6s2.687,6,6.001,6c3.314,0,6.001-2.688,6.001-6
	C14.011,14.186,11.324,11.499,8.01,11.499z M9,21.5H7v-6h2V21.5z M9,14.5H7v-1h2V14.5z"/>
</svg>
